<svg xmlns:xlink="http://www.w3.org/1999/xlink" xmlns="http://www.w3.org/2000/svg" style="width:100%;height:100%;" width="87"  height="52" ><defs><svg viewBox="0 0 87 52" id="svg10706405703"><path d="M 34.292 47.114 C 33.384 46.475 32.235 46.201 31.186 45.819 C 31.031 45.762 30.703 45.65 30.703 45.65 C 30.964 44.97 35.398 37.111 33.668 37.389 C 32.368 37.598 31.38 39.376 31.38 39.376 C 30.339 40.683 29.926 41.253 28.987 42.095 C 27.521 43.409 25.874 43.713 26.653 42.004 C 27.114 40.991 28.573 39.998 28.037 38.95 C 27.306 38.085 26.187 39.734 25.291 39.654 C 23.933 39.839 24.085 35.851 21.88 36.987 C 15.118 41.061 17.258 46.341 9.29 40.986 C 8.982 40.803 9.044 40.773 9.343 40.753 C 11.149 40.631 13.259 40.038 14.425 39.638 C 40.242 29.333 17.058 15.651 4.625 35.301 C 4.564 35.397 4.419 35.33 4.324 35.277 C 2.473 33.695 0.493 34.823 0.887 36.941 C 0.894 38.196 2.53 39.11 2.081 39.797 C 1.453 41.067 0.701 42.261 0.066 43.527 C -0.165 44.054 0.259 44.517 0.557 44.949 C 0.964 45.528 1.479 45.085 1.825 44.681 C 2.931 43.601 3.471 42.042 4.354 40.773 C 7.565 38.953 11.123 46.025 15.288 45.161 C 17.781 44.486 18.437 40.022 20.88 38.811 C 20.986 38.807 20.912 38.991 20.885 39.066 C 20.154 41.126 21.926 44.007 23.493 41.742 C 23.779 41.329 24.174 40.165 24.174 40.165 C 24.174 40.165 24.515 40.988 25.212 40.714 C 25.451 40.711 26.381 40.219 25.962 40.832 C 24.671 42.724 24.603 43.742 25.971 44.397 C 28.155 45.443 30.132 42.985 31.848 40.998 C 31.104 42.762 29.456 45.286 29.456 45.286 C 29.456 45.286 27.792 45.024 26.324 45.259 C 22.759 45.829 18.308 51.69 23.453 51.73 C 27.348 51.761 29.924 47.064 29.924 47.064 C 30.764 47.238 31.851 47.513 32.694 47.757 C 33.767 48.067 35.139 47.771 34.293 47.117 Z M 2.893 37.341 C 1.929 36.319 2.815 35.699 3.347 36.552 C 3.41 36.635 3.539 36.896 3.567 37.188 C 3.508 37.718 3.17 37.736 2.893 37.341 Z M 7.049 37.202 C 20.536 17.424 33.086 34.691 8.352 38.917 C 6.831 39.167 5.868 38.516 7.049 37.202 Z M 23.219 39.82 C 22.197 42.083 21.175 39.477 21.993 38.654 C 22.469 38.174 22.674 38.311 23.015 38.791 C 23.355 39.271 23.355 39.409 23.219 39.82 Z M 22.181 50.428 C 21.979 50.363 21.909 50.228 22.007 50.037 C 23.154 48.097 26.269 46.636 28.468 46.905 C 26.906 48.803 24.616 51.073 22.181 50.427 Z M 53.976 28.289 L 53.97 28.261 C 51.714 22.152 44.047 34.125 42.979 39.088 C 42.956 39.193 42.226 39.768 41.936 39.974 C 40.422 41.051 38.873 42.201 38.405 41.8 C 38.284 41.7 38.268 41.449 38.388 40.991 C 38.536 40.442 38.722 40.001 38.956 39.456 C 39.027 39.277 39.103 39.083 39.06 38.893 C 38.963 38.551 38.535 38.626 38.214 38.609 C 38.036 38.605 37.807 38.611 37.612 38.63 C 33.956 38.839 33.038 44.19 36.12 42.433 C 36.261 42.349 36.419 42.237 36.544 42.151 C 36.629 42.095 36.7 42.064 36.757 42.075 C 36.851 42.101 36.888 42.179 36.947 42.286 C 37.92 44.881 42.407 40.746 42.407 40.746 C 42.137 42.03 40.006 45.387 41.07 46.379 C 41.784 46.801 42.827 46.246 43.009 45.538 C 43.594 43.525 44.218 41.134 44.982 39.171 C 44.982 39.171 45.392 38.864 45.621 38.717 C 49.414 36.181 55.028 33.156 53.977 28.289 Z M 37.324 40.437 C 37.533 40.245 36.575 41.055 36.575 41.055 C 34.904 42.601 35.223 40.338 36.971 39.986 C 37.164 39.957 38.074 39.82 37.324 40.437 Z M 38.355 41.897 C 38.345 41.888 38.348 41.868 38.355 41.897 Z M 38.356 41.898 C 38.355 41.893 38.355 41.889 38.354 41.885 C 38.356 41.89 38.357 41.895 38.36 41.9 C 38.358 41.899 38.357 41.898 38.356 41.898 Z M 53.366 29.416 L 53.362 29.429 C 52.238 32.806 48.73 34.952 45.908 37.175 C 45.804 37.249 45.415 37.543 45.415 37.543 C 46.66 33.801 48.709 29.17 51.914 28.31 C 52.755 28.179 53.637 28.537 53.366 29.416 Z M 17.106 22.062 C 25.773 20.665 35.258 12.871 44.243 17.384 C 43.851 18.32 43.373 20.113 46.712 19.132 C 46.956 19.106 47.019 19.366 47.07 19.706 C 47.758 24.234 53.651 17.088 53.651 17.088 C 54.441 17.668 56.722 21.716 54.739 21.659 C 54.254 21.496 53.844 20.981 53.562 20.542 C 52.715 19.23 52.315 22.584 53.474 23.79 C 56.467 25.926 57.865 22.409 56.59 19.027 C 56.457 18.676 59.084 17.366 59.741 16.763 C 59.91 16.652 60.055 16.638 60.221 16.795 C 61.602 17.99 62.22 17.25 63.638 16.321 C 64.252 15.905 63.931 17.257 64.448 17.24 C 65.31 17.245 66.705 14.795 67.325 15.835 C 68.49 21.357 70.97 15.547 70.682 17.078 C 69.554 21.292 73.465 19.532 74.372 16.084 C 74.758 15.461 77.986 15.629 76.847 14.394 L 76.838 14.393 C 76.007 14.321 75.026 15.038 74.278 14.515 C 72.331 12.945 70.693 16.473 69.051 16.837 C 68.724 16.508 68.863 15.702 68.59 15.272 C 67.999 14.057 66.495 14.175 65.773 15.145 C 65.594 15.287 65.429 15.376 65.56 15.05 C 66.241 13.774 65.413 13.648 64.587 14.642 C 64.045 15.272 60.59 17.473 61.405 15.397 C 62.598 14.468 61.917 11.885 62.542 12.993 C 63.017 13.771 63.493 12.565 63.558 12.13 C 63.535 11.875 63.358 11.747 63.444 11.476 C 63.576 10.404 62.861 11.531 62.812 10.957 C 62.765 10.725 62.513 10.43 62.37 10.474 C 61.585 12.287 60.902 10.121 60.646 11.156 C 60.633 11.6 61.853 12.069 61.109 12.53 C 60.61 12.951 60.955 13.452 61.456 12.937 C 61.79 12.572 61.651 13.444 61.56 13.536 C 59.561 16.082 59.082 16.553 55.807 17.63 C 53.944 15.758 54.366 13.7 56.122 12.772 C 56.26 12.683 56.488 12.545 56.638 12.568 C 56.884 12.604 56.441 13.523 56.782 13.982 C 57.007 14.322 57.611 14.304 57.814 14.032 C 59.16 10.313 54.992 9.883 53.541 12.845 C 52.848 14.368 52.868 15.561 53.234 16.365 C 52.76 17.177 49.339 20.613 49.025 18.394 C 49.238 15.74 51.582 12.042 47.714 13.856 C 46.35 14.496 45.37 15.316 44.586 16.695 C 39.227 14.502 33.78 14.176 28.147 15.907 C 24.171 16.768 20.385 19.333 16.175 19.779 C 12.323 13.242 36.465 -4.045 33.566 4.233 C 33.169 5.365 30.967 6.704 31.851 7.67 C 32.581 8.469 35.115 6.786 35.488 4.693 C 37.775 -8.123 17.342 8.862 14.649 13.594 C 12.272 17.77 12.244 20.61 17.107 22.063 Z M 72.172 16.291 C 72.516 15.656 73.192 15.361 73.2 16.304 C 73.16 16.998 71.623 18.701 71.594 17.684 L 71.594 17.676 C 71.617 17.234 71.918 16.694 72.172 16.29 Z M 48.395 15.844 C 48.122 16.599 47.782 17.079 47.237 17.765 C 47.032 18.039 45.836 18.646 45.676 18.109 C 45.329 16.942 49.321 13.281 48.395 15.844 Z M 86.638 40.866 L 86.632 40.87 C 85.752 41.896 84.294 42.113 83.339 41.049 C 82.512 40.301 81.926 41.433 81.337 41.903 C 80.29 42.797 81.384 39.957 80.089 40.145 C 79.138 40.377 77.9 42.929 77.682 42.785 C 79.731 36.471 75.985 39.901 72.724 42.944 C 72.559 43.06 72.501 42.981 72.528 42.817 C 72.725 41.972 73.025 41.112 73.254 40.263 C 74.497 37.193 77.951 35.816 77.831 31.799 C 77.707 22.387 74.106 34.962 72.991 38.601 C 72.86 38.871 70.745 40.9 70.579 40.502 C 70.554 40.039 70.944 39.483 70.754 39.042 C 69.518 37.485 66.937 39.583 66.307 40.917 C 65.93 41.603 65.633 42.425 65.735 43.185 C 65.818 43.808 67.572 43.259 68.776 41.91 C 68.982 41.738 69.083 41.787 69.081 42.096 C 69.005 43.998 70.193 43.194 70.887 42.156 C 71.384 41.659 72.015 40.846 72.506 40.484 C 71.777 42.312 69.147 45.77 70.841 46.823 C 71.574 47.07 71.951 45.855 72.422 45.414 C 72.359 45.341 78.864 38.115 77.623 40.914 C 75.825 43.972 75.805 47.043 79.119 42.423 C 80.371 40.51 79.258 44.056 80.918 43.032 C 81.5 42.773 82.031 41.335 82.748 41.77 C 84.745 44.345 88.111 40.326 86.638 40.865 Z M 76.869 29.957 L 76.871 29.966 C 77.487 33.193 74.67 37.243 73.982 37.701 C 74.085 37.257 76.519 28.597 76.869 29.957 Z M 69.35 40.071 L 69.344 40.078 C 68.654 40.833 67.76 42.243 66.855 42.614 C 66.82 42.552 66.872 42.389 66.902 42.299 C 67.26 41.204 68.087 39.928 68.931 39.329 C 69.584 38.948 69.74 39.625 69.349 40.071 Z M 70.411 32.522 C 71.765 28.708 70.552 24.83 66.358 23.771 C 65.386 23.544 64.389 23.646 63.447 23.825 C 61.642 24.146 60.066 24.822 58.517 25.508 C 58.419 25.551 58.479 25.699 58.577 25.665 C 58.974 25.528 59.38 25.418 59.79 25.326 C 60.599 25.145 61.433 25.044 62.258 25.048 C 63.444 25.03 64.542 25.378 65.508 26.026 C 66.067 26.372 66.481 26.847 66.815 27.393 C 66.975 27.65 67.131 27.908 67.279 28.17 C 67.77 29.023 68.019 29.889 68.129 30.949 C 68.291 32.502 68.04 34.108 67.408 35.549 C 65.886 39.1 62.602 42.11 58.752 42.746 C 59.995 40.002 61.294 37.289 62.921 34.732 C 63.672 33.552 64.476 32.407 65.316 31.289 C 65.5 31.046 65.401 30.669 65.151 30.517 C 64.872 30.347 64.542 30.462 64.357 30.707 C 61.542 34.43 59.259 38.473 57.647 42.861 C 57.605 42.863 57.564 42.865 57.521 42.867 C 57.217 42.879 56.912 42.859 56.615 42.812 C 58.611 38.466 60.915 34.272 63.737 30.407 C 63.937 30.131 63.868 29.74 63.586 29.551 C 63.311 29.365 62.939 29.44 62.755 29.716 C 60.862 32.562 59.198 35.561 57.752 38.657 C 57.132 39.981 56.552 41.321 56 42.671 C 55.609 42.553 55.238 42.385 54.905 42.169 C 56.857 37.621 59.226 33.266 62.419 29.476 C 62.649 29.204 62.606 28.791 62.327 28.572 C 62.054 28.358 61.662 28.406 61.449 28.681 C 58.39 32.614 56.149 37.103 54.358 41.74 C 53.701 41.117 53.293 40.26 53.342 39.224 C 53.37 38.735 52.899 38.334 52.423 38.453 C 52.016 38.548 51.765 38.96 51.864 39.368 C 52.056 40.324 52.488 41.243 53.172 41.939 C 53.433 42.207 53.718 42.437 54.02 42.631 C 53.924 42.888 53.83 43.144 53.738 43.4 C 53.109 45.135 52.533 46.885 51.989 48.644 C 51.958 48.743 52.01 48.849 52.108 48.884 C 52.208 48.92 52.318 48.867 52.354 48.766 C 53.045 46.813 53.777 44.862 54.578 42.942 C 54.945 43.117 55.333 43.248 55.731 43.337 C 55.096 44.922 54.499 46.521 53.926 48.125 C 53.891 48.222 53.939 48.331 54.034 48.37 C 54.133 48.41 54.245 48.363 54.285 48.263 C 54.933 46.641 55.611 45.03 56.329 43.438 C 56.515 43.459 56.702 43.474 56.889 43.478 C 57.07 43.481 57.25 43.476 57.429 43.465 C 56.95 44.82 56.505 46.19 56.135 47.579 C 56.066 47.838 56.411 47.912 56.514 47.69 C 57.187 46.245 57.831 44.788 58.483 43.338 C 58.709 43.299 58.933 43.254 59.155 43.205 C 64.359 41.917 68.59 37.533 70.41 32.52 Z" fill="#FFEDDD"></path></svg></defs><use href="#svg10706405703"></use></svg>